<mxfile host="app.diagrams.net" modified="2024-01-10T03:38:40.800Z" agent="Mozilla/5.0 (Macintosh; Intel Mac OS X 10_15_7) AppleWebKit/537.36 (KHTML, like Gecko) Chrome/120.0.0.0 Safari/537.36" etag="Z43vAWBRpH3svRAvx4YF" version="22.1.18" type="github">
  <diagram name="Page-1" id="tlXJvN0K6t1u7c-1Ew1d">
    <mxGraphModel dx="2074" dy="1146" grid="1" gridSize="10" guides="1" tooltips="1" connect="1" arrows="1" fold="1" page="1" pageScale="1" pageWidth="850" pageHeight="1100" math="0" shadow="0">
      <root>
        <mxCell id="0" />
        <mxCell id="1" parent="0" />
        <mxCell id="2n-cKGP6HSaAaDGHB_0G-1" value="直播流" style="rounded=0;whiteSpace=wrap;html=1;strokeColor=none;fontSize=14;" vertex="1" parent="1">
          <mxGeometry x="80" y="310" width="50" height="50" as="geometry" />
        </mxCell>
        <mxCell id="2n-cKGP6HSaAaDGHB_0G-2" value="" style="edgeStyle=orthogonalEdgeStyle;rounded=0;orthogonalLoop=1;jettySize=auto;html=1;fontSize=14;" edge="1" parent="1" source="2n-cKGP6HSaAaDGHB_0G-12" target="2n-cKGP6HSaAaDGHB_0G-9">
          <mxGeometry relative="1" as="geometry" />
        </mxCell>
        <mxCell id="2n-cKGP6HSaAaDGHB_0G-3" value="截帧" style="rounded=1;whiteSpace=wrap;html=1;fontSize=14;" vertex="1" parent="1">
          <mxGeometry x="190" y="305" width="120" height="60" as="geometry" />
        </mxCell>
        <mxCell id="2n-cKGP6HSaAaDGHB_0G-4" value="" style="edgeStyle=orthogonalEdgeStyle;rounded=0;orthogonalLoop=1;jettySize=auto;html=1;fontSize=14;" edge="1" parent="1" source="2n-cKGP6HSaAaDGHB_0G-5" target="2n-cKGP6HSaAaDGHB_0G-3">
          <mxGeometry relative="1" as="geometry" />
        </mxCell>
        <mxCell id="2n-cKGP6HSaAaDGHB_0G-5" value="" style="points=[[0,0.5,0],[0.19,0.02,0],[0.59,0,0],[0.985,0.02,0],[1,0.5,0],[0.985,0.98,0],[0.59,1,0],[0.19,0.98,0]];verticalLabelPosition=bottom;sketch=0;html=1;verticalAlign=top;aspect=fixed;align=center;pointerEvents=1;shape=mxgraph.cisco19.camera;fillColor=#005073;strokeColor=none;fontSize=14;" vertex="1" parent="1">
          <mxGeometry x="42" y="305" width="108" height="60" as="geometry" />
        </mxCell>
        <mxCell id="2n-cKGP6HSaAaDGHB_0G-6" value="" style="edgeStyle=orthogonalEdgeStyle;rounded=0;orthogonalLoop=1;jettySize=auto;html=1;" edge="1" parent="1" source="2n-cKGP6HSaAaDGHB_0G-9" target="2n-cKGP6HSaAaDGHB_0G-13">
          <mxGeometry relative="1" as="geometry">
            <Array as="points">
              <mxPoint x="594" y="390" />
              <mxPoint x="594" y="390" />
            </Array>
          </mxGeometry>
        </mxCell>
        <mxCell id="2n-cKGP6HSaAaDGHB_0G-7" value="" style="edgeStyle=orthogonalEdgeStyle;rounded=0;orthogonalLoop=1;jettySize=auto;html=1;" edge="1" parent="1" source="2n-cKGP6HSaAaDGHB_0G-9" target="2n-cKGP6HSaAaDGHB_0G-15">
          <mxGeometry relative="1" as="geometry" />
        </mxCell>
        <mxCell id="2n-cKGP6HSaAaDGHB_0G-8" value="人脸/车牌&lt;br&gt;位置" style="edgeLabel;html=1;align=center;verticalAlign=middle;resizable=0;points=[];fontSize=14;" vertex="1" connectable="0" parent="2n-cKGP6HSaAaDGHB_0G-7">
          <mxGeometry x="0.0333" y="1" relative="1" as="geometry">
            <mxPoint as="offset" />
          </mxGeometry>
        </mxCell>
        <mxCell id="2n-cKGP6HSaAaDGHB_0G-9" value="CGI" style="whiteSpace=wrap;html=1;rounded=1;fontSize=14;" vertex="1" parent="1">
          <mxGeometry x="564" y="305" width="120" height="60" as="geometry" />
        </mxCell>
        <mxCell id="2n-cKGP6HSaAaDGHB_0G-10" value="" style="edgeStyle=orthogonalEdgeStyle;rounded=0;orthogonalLoop=1;jettySize=auto;html=1;fontSize=14;" edge="1" parent="1" source="2n-cKGP6HSaAaDGHB_0G-3" target="2n-cKGP6HSaAaDGHB_0G-12">
          <mxGeometry relative="1" as="geometry">
            <mxPoint x="340" y="335" as="sourcePoint" />
            <mxPoint x="500" y="335" as="targetPoint" />
          </mxGeometry>
        </mxCell>
        <mxCell id="2n-cKGP6HSaAaDGHB_0G-11" value="JPG图片" style="edgeLabel;html=1;align=center;verticalAlign=middle;resizable=0;points=[];fontSize=14;" vertex="1" connectable="0" parent="2n-cKGP6HSaAaDGHB_0G-10">
          <mxGeometry x="-0.2115" relative="1" as="geometry">
            <mxPoint as="offset" />
          </mxGeometry>
        </mxCell>
        <mxCell id="2n-cKGP6HSaAaDGHB_0G-12" value="上传COS？" style="whiteSpace=wrap;html=1;rounded=1;dashed=1;fontSize=14;" vertex="1" parent="1">
          <mxGeometry x="414" y="305" width="120" height="60" as="geometry" />
        </mxCell>
        <mxCell id="2n-cKGP6HSaAaDGHB_0G-13" value="AI推理服务" style="whiteSpace=wrap;html=1;rounded=1;fontSize=14;" vertex="1" parent="1">
          <mxGeometry x="564" y="430" width="120" height="60" as="geometry" />
        </mxCell>
        <mxCell id="2n-cKGP6HSaAaDGHB_0G-14" value="" style="edgeStyle=orthogonalEdgeStyle;rounded=0;orthogonalLoop=1;jettySize=auto;html=1;" edge="1" parent="1" source="2n-cKGP6HSaAaDGHB_0G-15" target="2n-cKGP6HSaAaDGHB_0G-18">
          <mxGeometry relative="1" as="geometry" />
        </mxCell>
        <mxCell id="2n-cKGP6HSaAaDGHB_0G-15" value="打码" style="whiteSpace=wrap;html=1;rounded=1;fontSize=14;" vertex="1" parent="1">
          <mxGeometry x="824" y="305" width="120" height="60" as="geometry" />
        </mxCell>
        <mxCell id="2n-cKGP6HSaAaDGHB_0G-16" value="" style="edgeStyle=orthogonalEdgeStyle;rounded=0;orthogonalLoop=1;jettySize=auto;html=1;exitX=0.75;exitY=0;exitDx=0;exitDy=0;entryX=0.75;entryY=1;entryDx=0;entryDy=0;" edge="1" parent="1" source="2n-cKGP6HSaAaDGHB_0G-13" target="2n-cKGP6HSaAaDGHB_0G-9">
          <mxGeometry relative="1" as="geometry">
            <mxPoint x="584" y="570" as="sourcePoint" />
            <mxPoint x="604" y="440" as="targetPoint" />
            <Array as="points" />
          </mxGeometry>
        </mxCell>
        <mxCell id="2n-cKGP6HSaAaDGHB_0G-17" value="" style="edgeStyle=orthogonalEdgeStyle;rounded=0;orthogonalLoop=1;jettySize=auto;html=1;" edge="1" parent="1" source="2n-cKGP6HSaAaDGHB_0G-18" target="2n-cKGP6HSaAaDGHB_0G-19">
          <mxGeometry relative="1" as="geometry" />
        </mxCell>
        <mxCell id="2n-cKGP6HSaAaDGHB_0G-18" value="编码" style="whiteSpace=wrap;html=1;rounded=1;fontSize=14;" vertex="1" parent="1">
          <mxGeometry x="1004" y="305" width="120" height="60" as="geometry" />
        </mxCell>
        <mxCell id="2n-cKGP6HSaAaDGHB_0G-19" value="流转发" style="whiteSpace=wrap;html=1;rounded=1;fontSize=14;" vertex="1" parent="1">
          <mxGeometry x="1184" y="305" width="120" height="60" as="geometry" />
        </mxCell>
        <mxCell id="2n-cKGP6HSaAaDGHB_0G-20" value="直播流" style="rounded=0;whiteSpace=wrap;html=1;strokeColor=none;fontSize=14;" vertex="1" parent="1">
          <mxGeometry x="83" y="575" width="50" height="50" as="geometry" />
        </mxCell>
        <mxCell id="2n-cKGP6HSaAaDGHB_0G-21" value="" style="edgeStyle=orthogonalEdgeStyle;rounded=0;orthogonalLoop=1;jettySize=auto;html=1;fontSize=14;" edge="1" parent="1" target="2n-cKGP6HSaAaDGHB_0G-27">
          <mxGeometry relative="1" as="geometry">
            <mxPoint x="365" y="600" as="sourcePoint" />
          </mxGeometry>
        </mxCell>
        <mxCell id="2n-cKGP6HSaAaDGHB_0G-22" value="解码" style="rounded=1;whiteSpace=wrap;html=1;fontSize=14;" vertex="1" parent="1">
          <mxGeometry x="193" y="570" width="120" height="60" as="geometry" />
        </mxCell>
        <mxCell id="2n-cKGP6HSaAaDGHB_0G-23" value="" style="edgeStyle=orthogonalEdgeStyle;rounded=0;orthogonalLoop=1;jettySize=auto;html=1;fontSize=14;" edge="1" parent="1" source="2n-cKGP6HSaAaDGHB_0G-24" target="2n-cKGP6HSaAaDGHB_0G-22">
          <mxGeometry relative="1" as="geometry" />
        </mxCell>
        <mxCell id="2n-cKGP6HSaAaDGHB_0G-24" value="" style="points=[[0,0.5,0],[0.19,0.02,0],[0.59,0,0],[0.985,0.02,0],[1,0.5,0],[0.985,0.98,0],[0.59,1,0],[0.19,0.98,0]];verticalLabelPosition=bottom;sketch=0;html=1;verticalAlign=top;aspect=fixed;align=center;pointerEvents=1;shape=mxgraph.cisco19.camera;fillColor=#005073;strokeColor=none;fontSize=14;" vertex="1" parent="1">
          <mxGeometry x="45" y="570" width="108" height="60" as="geometry" />
        </mxCell>
        <mxCell id="2n-cKGP6HSaAaDGHB_0G-25" value="" style="edgeStyle=orthogonalEdgeStyle;rounded=0;orthogonalLoop=1;jettySize=auto;html=1;" edge="1" parent="1" source="2n-cKGP6HSaAaDGHB_0G-27" target="2n-cKGP6HSaAaDGHB_0G-31">
          <mxGeometry relative="1" as="geometry" />
        </mxCell>
        <mxCell id="2n-cKGP6HSaAaDGHB_0G-26" value="人脸/车牌&lt;br&gt;位置" style="edgeLabel;html=1;align=center;verticalAlign=middle;resizable=0;points=[];fontSize=14;" vertex="1" connectable="0" parent="2n-cKGP6HSaAaDGHB_0G-25">
          <mxGeometry x="0.0333" y="1" relative="1" as="geometry">
            <mxPoint as="offset" />
          </mxGeometry>
        </mxCell>
        <mxCell id="2n-cKGP6HSaAaDGHB_0G-27" value="算法filter/SDK&lt;br&gt;(GPU)" style="whiteSpace=wrap;html=1;rounded=1;fontSize=14;" vertex="1" parent="1">
          <mxGeometry x="395" y="570" width="120" height="60" as="geometry" />
        </mxCell>
        <mxCell id="2n-cKGP6HSaAaDGHB_0G-28" value="" style="edgeStyle=orthogonalEdgeStyle;rounded=0;orthogonalLoop=1;jettySize=auto;html=1;fontSize=14;entryX=0;entryY=0.5;entryDx=0;entryDy=0;" edge="1" parent="1" source="2n-cKGP6HSaAaDGHB_0G-22" target="2n-cKGP6HSaAaDGHB_0G-27">
          <mxGeometry relative="1" as="geometry">
            <mxPoint x="343" y="600" as="sourcePoint" />
            <mxPoint x="343" y="600" as="targetPoint" />
          </mxGeometry>
        </mxCell>
        <mxCell id="2n-cKGP6HSaAaDGHB_0G-29" value="YUV" style="edgeLabel;html=1;align=center;verticalAlign=middle;resizable=0;points=[];fontSize=16;" vertex="1" connectable="0" parent="2n-cKGP6HSaAaDGHB_0G-28">
          <mxGeometry x="0.1667" y="-2" relative="1" as="geometry">
            <mxPoint as="offset" />
          </mxGeometry>
        </mxCell>
        <mxCell id="2n-cKGP6HSaAaDGHB_0G-30" value="" style="edgeStyle=orthogonalEdgeStyle;rounded=0;orthogonalLoop=1;jettySize=auto;html=1;" edge="1" parent="1" source="2n-cKGP6HSaAaDGHB_0G-31" target="2n-cKGP6HSaAaDGHB_0G-33">
          <mxGeometry relative="1" as="geometry" />
        </mxCell>
        <mxCell id="2n-cKGP6HSaAaDGHB_0G-31" value="打码" style="whiteSpace=wrap;html=1;rounded=1;fontSize=14;" vertex="1" parent="1">
          <mxGeometry x="625" y="570" width="120" height="60" as="geometry" />
        </mxCell>
        <mxCell id="2n-cKGP6HSaAaDGHB_0G-32" value="" style="edgeStyle=orthogonalEdgeStyle;rounded=0;orthogonalLoop=1;jettySize=auto;html=1;" edge="1" parent="1" source="2n-cKGP6HSaAaDGHB_0G-33" target="2n-cKGP6HSaAaDGHB_0G-34">
          <mxGeometry relative="1" as="geometry" />
        </mxCell>
        <mxCell id="2n-cKGP6HSaAaDGHB_0G-33" value="编码" style="whiteSpace=wrap;html=1;rounded=1;fontSize=14;" vertex="1" parent="1">
          <mxGeometry x="785" y="570" width="120" height="60" as="geometry" />
        </mxCell>
        <mxCell id="2n-cKGP6HSaAaDGHB_0G-34" value="流转发" style="whiteSpace=wrap;html=1;rounded=1;fontSize=14;" vertex="1" parent="1">
          <mxGeometry x="945" y="570" width="120" height="60" as="geometry" />
        </mxCell>
      </root>
    </mxGraphModel>
  </diagram>
</mxfile>
